<svg xmlns="http://www.w3.org/2000/svg" xmlns:xlink="http://www.w3.org/1999/xlink" width="200" zoomAndPan="magnify" viewBox="0 0 150 149.999998" height="200" preserveAspectRatio="xMidYMid meet" version="1.0"><defs><clipPath id="aa8979d2d9"><path d="M 0 13.59375 L 150 13.59375 L 150 136.59375 L 0 136.59375 Z M 0 13.59375 " clip-rule="nonzero"/></clipPath></defs><path fill="#ffffff" d="M 21.828125 30.492188 C 16.363281 40.636719 8.519531 57.089844 4.265625 69.941406 C 0.015625 82.792969 -0.644531 92.042969 2.894531 97.929688 C 6.433594 103.816406 14.175781 106.34375 17.234375 108.953125 C 20.296875 111.5625 18.679688 114.253906 17.5 117.539062 C 16.324219 120.828125 15.589844 124.710938 22.472656 125.386719 C 29.351562 126.058594 43.851562 123.523438 51.574219 122.09375 C 59.300781 120.664062 60.25 120.34375 65.96875 122.3125 C 71.683594 124.285156 82.164062 128.550781 92.359375 131.765625 C 102.558594 134.976562 112.472656 137.140625 119.191406 135.214844 C 125.910156 133.292969 129.433594 127.285156 134.167969 114.96875 C 138.898438 102.652344 144.84375 84.03125 147.539062 72.996094 C 150.238281 61.957031 149.695312 58.503906 147.769531 55.128906 C 145.847656 51.753906 142.550781 48.460938 125.828125 41.761719 C 109.105469 35.0625 78.957031 24.953125 61.324219 19.539062 C 43.695312 14.125 38.582031 13.410156 34.480469 14.96875 C 30.382812 16.523438 27.292969 20.351562 21.828125 30.492188 Z M 21.828125 30.492188 " fill-opacity="1" fill-rule="evenodd"/><g clip-path="url(#aa8979d2d9)"><path fill="#c5c3c4" d="M 22.367188 30.785156 C 19.351562 36.375 15.617188 43.878906 12.167969 51.632812 C 9.371094 57.917969 6.75 64.378906 4.847656 70.132812 C 2.738281 76.511719 1.519531 81.984375 1.269531 86.578125 C 1.023438 91.109375 1.714844 94.777344 3.417969 97.613281 C 5.734375 101.46875 9.984375 103.871094 13.414062 105.808594 C 15.101562 106.761719 16.597656 107.609375 17.628906 108.488281 C 20.632812 111.046875 19.664062 113.574219 18.527344 116.539062 L 18.074219 117.746094 C 17.527344 119.28125 17.074219 120.945312 17.539062 122.234375 C 17.992188 123.488281 19.375 124.46875 22.527344 124.777344 C 25.917969 125.109375 31.214844 124.644531 36.628906 123.921875 C 42.066406 123.195312 47.613281 122.207031 51.464844 121.492188 L 52.484375 121.304688 C 59.421875 120.015625 60.5625 119.804688 66.164062 121.734375 C 68.09375 122.398438 70.695312 123.378906 73.664062 124.492188 C 79.132812 126.546875 85.882812 129.082031 92.542969 131.179688 C 97.609375 132.777344 102.609375 134.113281 107.171875 134.808594 C 111.683594 135.5 115.757812 135.5625 119.023438 134.628906 C 122.238281 133.707031 124.695312 131.800781 126.925781 128.636719 C 129.207031 125.402344 131.25 120.859375 133.597656 114.75 C 135.964844 108.59375 138.640625 100.84375 141.054688 93.253906 C 143.457031 85.714844 145.605469 78.339844 146.949219 72.851562 C 148.285156 67.382812 148.816406 63.808594 148.78125 61.195312 C 148.742188 58.660156 148.15625 57.035156 147.242188 55.429688 C 146.320312 53.816406 145.066406 52.214844 142.015625 50.203125 C 138.894531 48.144531 133.925781 45.664062 125.601562 42.328125 C 117.972656 39.273438 107.519531 35.496094 96.734375 31.78125 C 83.933594 27.371094 70.6875 23.050781 61.148438 20.125 C 52.359375 17.425781 46.695312 15.898438 42.734375 15.242188 C 38.863281 14.601562 36.648438 14.796875 34.699219 15.539062 C 32.75 16.277344 31.03125 17.566406 29.140625 19.894531 C 27.199219 22.28125 25.082031 25.746094 22.367188 30.78125 Z M 11.054688 51.132812 C 14.523438 43.335938 18.273438 35.804688 21.292969 30.203125 C 24.042969 25.101562 26.199219 21.578125 28.195312 19.125 C 30.238281 16.613281 32.117188 15.210938 34.265625 14.394531 C 36.417969 13.578125 38.8125 13.355469 42.929688 14.035156 C 46.953125 14.703125 52.664062 16.242188 61.503906 18.957031 C 71.089844 21.898438 84.351562 26.222656 97.128906 30.625 C 107.914062 34.339844 118.382812 38.121094 126.054688 41.195312 C 134.453125 44.558594 139.492188 47.078125 142.683594 49.183594 C 145.945312 51.335938 147.300781 53.070312 148.300781 54.828125 C 149.308594 56.59375 149.957031 58.386719 149.996094 61.179688 C 150.039062 63.894531 149.496094 67.566406 148.132812 73.136719 C 146.785156 78.65625 144.628906 86.0625 142.21875 93.625 C 139.796875 101.222656 137.113281 108.996094 134.734375 115.1875 C 132.351562 121.390625 130.265625 126.015625 127.921875 129.339844 C 125.527344 132.742188 122.859375 134.800781 119.355469 135.804688 C 115.90625 136.792969 111.660156 136.734375 106.988281 136.023438 C 102.363281 135.316406 97.304688 133.960938 92.179688 132.347656 C 85.539062 130.253906 78.746094 127.703125 73.238281 125.636719 C 70.347656 124.550781 67.816406 123.597656 65.769531 122.890625 C 60.464844 121.0625 59.371094 121.265625 52.703125 122.503906 L 51.683594 122.695312 C 47.816406 123.410156 42.246094 124.402344 36.785156 125.132812 C 31.300781 125.867188 25.90625 126.335938 22.414062 125.992188 C 18.6875 125.628906 16.996094 124.328125 16.390625 122.652344 C 15.796875 121.007812 16.300781 119.082031 16.929688 117.335938 L 17.390625 116.105469 C 18.359375 113.574219 19.1875 111.414062 16.839844 109.417969 C 15.902344 108.613281 14.449219 107.792969 12.816406 106.871094 C 9.257812 104.859375 4.851562 102.367188 2.371094 98.246094 C 0.539062 95.191406 -0.210938 91.292969 0.0507812 86.515625 C 0.308594 81.796875 1.546875 76.21875 3.6875 69.75 C 5.59375 63.984375 8.230469 57.476562 11.054688 51.132812 Z M 11.054688 51.132812 " fill-opacity="1" fill-rule="nonzero"/></g><path fill="#000000" d="M 30.460938 36.335938 C 27.4375 40.894531 23.976562 47.617188 20.867188 54.667969 C 17.707031 61.835938 14.925781 69.324219 13.355469 75.199219 C 11.828125 80.917969 11.457031 85.054688 12.054688 88.1875 C 12.621094 91.167969 14.097656 93.257812 16.304688 94.992188 C 20.980469 98.664062 28.898438 100.835938 32.859375 101.925781 L 32.867188 101.925781 C 38.789062 103.550781 38.789062 103.550781 34.972656 107.90625 C 33.753906 109.300781 31.933594 111.375 30.730469 113.285156 C 29.800781 114.761719 29.210938 116.0625 29.757812 116.40625 C 30.59375 116.933594 32.789062 116.875 35.484375 116.511719 C 39.496094 115.972656 44.425781 114.726562 47.984375 113.683594 C 50.023438 113.085938 51.589844 112.566406 52.882812 112.132812 C 55.726562 111.1875 57.355469 110.644531 59.429688 110.746094 C 61.734375 110.863281 64.316406 111.777344 69.019531 113.449219 C 70.324219 113.910156 71.8125 114.4375 73.8125 115.128906 C 78.289062 116.675781 84.199219 118.617188 90.054688 120.304688 C 94.421875 121.5625 98.761719 122.683594 102.457031 123.394531 C 106.640625 124.199219 109.976562 124.476562 112.808594 123.457031 C 115.609375 122.449219 118.054688 120.105469 120.554688 115.644531 C 122.726562 111.773438 124.90625 106.363281 126.914062 100.589844 C 129.761719 92.414062 132.269531 83.492188 133.949219 77.125 C 135.355469 71.777344 136.171875 68.277344 136.039062 65.695312 C 135.921875 63.339844 134.941406 61.683594 132.785156 59.84375 C 130.542969 57.933594 127.101562 55.839844 122.855469 53.683594 C 118.121094 51.28125 112.421875 48.808594 106.289062 46.414062 C 100.417969 44.125 94.136719 41.898438 87.996094 39.835938 C 81.859375 37.777344 75.859375 35.878906 70.554688 34.246094 C 65.265625 32.621094 60.660156 31.253906 56.601562 30.179688 C 52.589844 29.117188 49.128906 28.351562 46.105469 27.914062 C 43.230469 27.5 40.777344 27.390625 38.398438 28.433594 C 35.964844 29.503906 33.480469 31.808594 30.519531 36.253906 Z M 18.632812 53.683594 C 21.78125 46.53125 25.316406 39.679688 28.433594 34.984375 L 28.484375 34.894531 C 31.726562 30.027344 34.558594 27.453125 37.421875 26.195312 C 40.34375 24.910156 43.175781 25.019531 46.449219 25.492188 C 49.566406 25.941406 53.117188 26.730469 57.222656 27.816406 C 61.289062 28.890625 65.929688 30.269531 71.269531 31.910156 C 76.589844 33.550781 82.605469 35.453125 88.773438 37.519531 C 94.933594 39.589844 101.25 41.828125 107.167969 44.140625 C 113.386719 46.566406 119.164062 49.070312 123.953125 51.503906 C 128.363281 53.742188 131.972656 55.941406 134.371094 57.988281 C 137.082031 60.304688 138.320312 62.449219 138.476562 65.582031 C 138.625 68.492188 137.777344 72.171875 136.308594 77.746094 C 134.621094 84.148438 132.097656 93.125 129.21875 101.394531 C 127.164062 107.300781 124.925781 112.84375 122.6875 116.84375 C 119.875 121.863281 117.003906 124.539062 113.628906 125.753906 C 110.285156 126.960938 106.578125 126.675781 101.996094 125.796875 C 98.207031 125.066406 93.800781 123.933594 89.382812 122.660156 C 83.460938 120.949219 77.511719 118.996094 73.019531 117.445312 C 71.375 116.878906 69.6875 116.277344 68.207031 115.753906 C 63.714844 114.160156 61.25 113.285156 59.316406 113.1875 C 57.679688 113.109375 56.210938 113.597656 53.648438 114.449219 C 52.308594 114.894531 50.691406 115.4375 48.664062 116.03125 C 45.015625 117.097656 39.949219 118.378906 35.808594 118.933594 C 32.597656 119.363281 29.84375 119.347656 28.457031 118.472656 C 26.320312 117.125 27.015625 114.601562 28.667969 111.980469 C 29.964844 109.925781 31.859375 107.761719 33.128906 106.308594 L 33.140625 106.296875 C 34.386719 104.875 34.386719 104.875 32.226562 104.28125 L 32.21875 104.277344 C 28.097656 103.148438 19.859375 100.886719 14.800781 96.914062 C 12.136719 94.820312 10.347656 92.28125 9.65625 88.636719 C 8.992188 85.140625 9.371094 80.65625 10.996094 74.566406 C 12.597656 68.570312 15.425781 60.957031 18.632812 53.683594 Z M 18.632812 53.683594 " fill-opacity="1" fill-rule="nonzero"/><path fill="#000000" d="M 34.332031 39.65625 C 34.550781 39.015625 35.242188 38.675781 35.878906 38.890625 C 36.519531 39.105469 36.863281 39.800781 36.644531 40.441406 C 35.429688 44.023438 34.214844 47.605469 33.167969 50.894531 C 32.085938 54.28125 31.097656 57.609375 30.292969 60.816406 C 29.523438 63.882812 28.9375 66.800781 28.523438 69.5 C 28.082031 72.359375 27.835938 74.949219 27.765625 77.195312 C 27.703125 79.367188 27.800781 81.242188 28.054688 82.785156 C 28.296875 84.242188 28.675781 85.382812 29.179688 86.179688 C 30.113281 87.648438 31.722656 88.070312 33.332031 88.488281 L 33.449219 88.523438 C 34.015625 88.730469 34.355469 89.332031 34.222656 89.933594 C 34.085938 90.542969 33.515625 90.945312 32.910156 90.882812 L 32.722656 90.851562 C 30.648438 90.3125 28.578125 89.773438 27.125 87.488281 C 26.4375 86.40625 25.945312 84.960938 25.648438 83.179688 C 25.367188 81.488281 25.261719 79.464844 25.332031 77.128906 C 25.402344 74.742188 25.65625 72.050781 26.105469 69.136719 C 26.527344 66.371094 27.132812 63.375 27.921875 60.222656 C 28.722656 57.039062 29.730469 53.648438 30.84375 50.160156 C 31.988281 46.574219 33.160156 43.113281 34.332031 39.65625 Z M 34.332031 39.65625 " fill-opacity="1" fill-rule="nonzero"/><path fill="#000000" d="M 120.671875 66.90625 C 120.816406 66.25 121.46875 65.832031 122.125 65.980469 C 122.78125 66.125 123.195312 66.777344 123.050781 67.433594 C 122.019531 72.046875 120.988281 76.664062 120.09375 80.578125 C 119.136719 84.78125 118.246094 88.601562 117.5 91.652344 C 116.730469 94.785156 116.085938 97.207031 115.5 99.175781 C 114.902344 101.164062 114.351562 102.730469 113.777344 104.125 C 113.199219 105.527344 112.597656 106.746094 111.953125 107.8125 C 111.300781 108.902344 110.601562 109.847656 109.832031 110.683594 C 108.328125 112.332031 106.617188 113.511719 104.910156 114.6875 L 104.890625 114.703125 C 104.328125 115.078125 103.570312 114.925781 103.195312 114.363281 C 102.820312 113.800781 102.972656 113.039062 103.535156 112.667969 L 103.539062 112.660156 C 105.125 111.574219 106.710938 110.480469 108.035156 109.035156 C 108.6875 108.324219 109.289062 107.511719 109.863281 106.558594 C 110.445312 105.589844 110.992188 104.476562 111.523438 103.195312 C 112.054688 101.902344 112.578125 100.414062 113.15625 98.476562 C 113.742188 96.519531 114.375 94.132812 115.128906 91.066406 C 115.902344 87.910156 116.785156 84.132812 117.714844 80.042969 C 118.710938 75.667969 119.691406 71.285156 120.671875 66.90625 Z M 120.671875 66.90625 " fill-opacity="1" fill-rule="nonzero"/><path fill="#e5191c" d="M 75.445312 80.402344 C 73.859375 73.070312 72.238281 66.019531 70.324219 61.226562 C 68.136719 55.730469 65.566406 53.195312 62.144531 52.632812 C 58.722656 52.070312 54.453125 53.484375 52.644531 57.128906 C 50.832031 60.769531 51.484375 66.644531 52.695312 70.996094 C 53.910156 75.34375 55.683594 78.171875 57.964844 82.503906 C 60.242188 86.835938 63.03125 92.671875 64.804688 95.808594 C 66.578125 98.941406 67.339844 99.378906 71.5 98.09375 C 75.664062 96.804688 83.230469 93.796875 88.296875 91.203125 C 93.363281 88.613281 95.933594 86.4375 97.90625 83.191406 C 99.878906 79.949219 101.253906 75.632812 100.675781 72.316406 C 100.097656 69 97.5625 66.679688 93.925781 66.355469 C 90.289062 66.027344 85.546875 67.695312 81.980469 70.976562 C 79.304688 73.4375 77.292969 76.808594 75.445312 80.402344 Z M 75.445312 80.402344 " fill-opacity="1" fill-rule="evenodd"/><path fill="#000000" d="M 74.65625 84.722656 C 74.28125 85.285156 73.519531 85.4375 72.960938 85.0625 C 72.410156 84.699219 72.253906 83.964844 72.59375 83.410156 C 73.109375 82.347656 73.628906 81.285156 74.160156 80.242188 C 73.386719 76.679688 72.613281 73.21875 71.828125 70.164062 C 70.996094 66.933594 70.128906 64.023438 69.191406 61.675781 C 68.160156 59.082031 67.050781 57.207031 65.816406 55.925781 C 64.667969 54.738281 63.394531 54.078125 61.949219 53.839844 C 60.367188 53.578125 58.570312 53.804688 57 54.546875 C 55.640625 55.191406 54.457031 56.226562 53.738281 57.671875 C 53.011719 59.128906 52.734375 61.03125 52.742188 63.046875 C 52.75 65.621094 53.230469 68.363281 53.871094 70.667969 C 54.828125 74.09375 56.171875 76.589844 57.851562 79.710938 L 59.042969 81.933594 C 60.003906 83.757812 61.0625 85.867188 62.09375 87.921875 C 63.496094 90.714844 64.855469 93.417969 65.867188 95.207031 C 66.609375 96.515625 67.101562 97.25 67.671875 97.460938 C 68.304688 97.6875 69.328125 97.484375 71.144531 96.925781 C 73.296875 96.257812 76.382812 95.121094 79.550781 93.820312 C 82.433594 92.640625 85.375 91.328125 87.742188 90.117188 C 90.183594 88.871094 92.023438 87.722656 93.480469 86.503906 C 94.894531 85.320312 95.949219 84.0625 96.867188 82.554688 C 97.839844 80.953125 98.664062 79.0625 99.144531 77.175781 C 99.5625 75.535156 99.714844 73.917969 99.472656 72.527344 C 99.234375 71.164062 98.605469 70.007812 97.675781 69.160156 L 97.613281 69.109375 C 96.648438 68.253906 95.351562 67.707031 93.820312 67.570312 C 92.144531 67.417969 90.183594 67.746094 88.222656 68.503906 C 86.324219 69.242188 84.433594 70.378906 82.808594 71.875 C 80.289062 74.195312 78.351562 77.425781 76.566406 80.890625 L 76.492188 81.035156 C 75.914062 82.164062 75.347656 83.324219 74.78125 84.480469 C 74.75 84.5625 74.707031 84.644531 74.65625 84.722656 Z M 75.9375 76.933594 C 77.429688 74.347656 79.09375 71.972656 81.15625 70.078125 C 83.011719 68.371094 85.167969 67.070312 87.34375 66.226562 C 89.648438 65.335938 91.988281 64.957031 94.03125 65.136719 C 96.109375 65.324219 97.882812 66.085938 99.230469 67.273438 L 99.300781 67.339844 C 100.644531 68.558594 101.546875 70.195312 101.878906 72.105469 C 102.183594 73.859375 102.011719 75.828125 101.515625 77.78125 C 100.976562 79.894531 100.050781 82.019531 98.949219 83.828125 C 97.890625 85.566406 96.675781 87.019531 95.046875 88.382812 C 93.457031 89.710938 91.472656 90.949219 88.851562 92.292969 C 86.40625 93.542969 83.402344 94.882812 80.480469 96.082031 C 77.238281 97.410156 74.074219 98.574219 71.859375 99.257812 C 69.511719 99.984375 68.074219 100.207031 66.839844 99.757812 C 65.546875 99.285156 64.773438 98.230469 63.742188 96.410156 C 62.703125 94.574219 61.332031 91.84375 59.917969 89.023438 C 58.894531 86.988281 57.847656 84.902344 56.882812 83.074219 L 55.703125 80.867188 C 53.953125 77.617188 52.554688 75.023438 51.523438 71.320312 C 50.832031 68.839844 50.3125 65.871094 50.304688 63.058594 C 50.292969 60.679688 50.644531 58.402344 51.546875 56.582031 C 52.53125 54.609375 54.132812 53.203125 55.960938 52.335938 C 57.980469 51.382812 60.296875 51.09375 62.339844 51.425781 C 64.3125 51.75 66.039062 52.640625 67.574219 54.234375 C 69.027344 55.734375 70.300781 57.875 71.457031 60.773438 C 72.433594 63.222656 73.332031 66.234375 74.1875 69.558594 C 74.800781 71.9375 75.375 74.414062 75.9375 76.933594 Z M 75.9375 76.933594 " fill-opacity="1" fill-rule="nonzero"/></svg>